Coordinates
version=1
nRows=54
nColumns=12
inDegrees=yes

Units are S.I. units (second, meters, Newtons, ...)
Angles are in degrees

endheader
time	SC_y	SC_z	SC_x	AC_y	AC_z	AC_x	GH_y	GH_z	GH_yy	EL_x	PS_y
       0.0              -18.47         -3.273          58.58          55.95         -6.411         -2.759          167.6          67.47          10.28          109.2          56.55
   0.02345              -18.47         -3.271          58.58          55.95         -6.409          -2.76          167.6          67.47          10.27          109.2          56.57
    0.0469              -18.47         -3.269          58.58          55.96         -6.406         -2.761          167.5          67.47          10.25          109.2          56.58
   0.07035              -18.47         -3.267          58.58          55.96         -6.404         -2.762          167.5          67.46          10.24          109.1          56.59
    0.0938              -18.47         -3.265          58.58          55.96         -6.401         -2.762          167.5          67.46          10.22          109.1          56.61
    0.1172              -18.47         -3.263          58.58          55.96         -6.398         -2.763          167.5          67.46          10.21          109.1          56.62
    0.1407              -18.47          -3.26          58.58          55.97         -6.395         -2.764          167.4          67.46          10.19          109.1          56.64
    0.1641              -18.47         -3.258          58.58          55.97         -6.392         -2.765          167.4          67.46          10.17          109.1          56.66
    0.1876              -18.47         -3.255          58.58          55.97         -6.388         -2.766          167.4          67.45          10.15          109.1          56.68
     0.211              -18.47         -3.252          58.58          55.98         -6.384         -2.768          167.3          67.45          10.13          109.0           56.7
    0.2345              -18.47         -3.249          58.58          55.98          -6.38         -2.769          167.3          67.45          10.11          109.0          56.72
    0.2579              -18.46         -3.245          58.58          55.98         -6.376          -2.77          167.2          67.45          10.08          109.0          56.74
    0.2814              -18.46         -3.241          58.58          55.99         -6.371         -2.772          167.2          67.44          10.06          109.0          56.77
    0.3048              -18.46         -3.237          58.58          55.99         -6.366         -2.773          167.1          67.44          10.03          108.9           56.8
    0.3283              -18.46         -3.233          58.58           56.0          -6.36         -2.775          167.1          67.44          9.998          108.9          56.83
    0.3517              -18.46         -3.228          58.58           56.0         -6.354         -2.777          167.0          67.43          9.965          108.9          56.86
    0.3752              -18.46         -3.223          58.58          56.01         -6.348         -2.779          167.0          67.43          9.928          108.8          56.89
    0.3986              -18.46         -3.218          58.58          56.02         -6.341         -2.781          166.9          67.43          9.888          108.8          56.93
    0.4221              -18.45         -3.211          58.58          56.02         -6.333         -2.783          166.8          67.42          9.845          108.7          56.97
    0.4455              -18.45         -3.205          58.58          56.03         -6.324         -2.786          166.7          67.41          9.798          108.7          57.02
     0.469              -18.45         -3.197          58.58          56.04         -6.315         -2.789          166.6          67.41          9.745          108.6          57.07
    0.4924              -18.45         -3.189          58.58          56.05         -6.305         -2.792          166.5           67.4          9.688          108.6          57.12
    0.5159              -18.44          -3.18          58.58          56.06         -6.293         -2.795          166.4           67.4          9.625          108.5          57.19
    0.5393              -18.44         -3.171          58.58          56.07         -6.281         -2.799          166.3          67.39          9.555          108.5          57.25
    0.5628              -18.44          -3.16          58.58          56.08         -6.267         -2.804          166.2          67.38          9.476          108.4          57.33
    0.5862              -18.43         -3.147          58.58           56.1         -6.251         -2.808          166.0          67.37          9.389          108.3          57.41
    0.6097              -18.43         -3.134          58.58          56.11         -6.233         -2.814          165.8          67.36          9.292          108.2          57.51
    0.6331              -18.43         -3.118          58.58          56.13         -6.214          -2.82          165.7          67.35          9.182          108.1          57.61
    0.6566              -18.42         -3.101          58.58          56.15         -6.191         -2.827          165.4          67.33          9.058          108.0          57.73
      0.68              -18.41         -3.081          58.58          56.17         -6.166         -2.834          165.2          67.32          8.917          107.8          57.87
    0.7035              -18.41         -3.058          58.58           56.2         -6.137         -2.843          164.9           67.3          8.757          107.7          58.02
    0.7269               -18.4         -3.032          58.58          56.23         -6.104         -2.853          164.6          67.28          8.572          107.5           58.2
    0.7504              -18.39         -3.002          58.58          56.26         -6.066         -2.865          164.2          67.25          8.359          107.3           58.4
    0.7738              -18.38         -2.968          58.58           56.3         -6.021         -2.879          163.8          67.22          8.112          107.0          58.64
    0.7973              -18.37         -2.927          58.58          56.35         -5.969         -2.895          163.2          67.19          7.822          106.7          58.92
    0.8207              -18.35         -2.879          58.58           56.4         -5.908         -2.913          162.6          67.15          7.481          106.4          59.25
    0.8442              -18.34         -2.822          58.58          56.47         -5.835         -2.936          161.9          67.11          7.075          106.0          59.64
    0.8676              -18.32         -2.753          58.59          56.54         -5.747         -2.962          161.1          67.05          6.589          105.5          60.11
    0.8911              -18.29         -2.671          58.59          56.64         -5.642         -2.995          160.0          66.99          6.001          104.9          60.68
    0.9145              -18.26          -2.57          58.59          56.75         -5.512         -3.034          158.8          66.91          5.282          104.2          61.37
     0.938              -18.22         -2.445          58.59           56.9         -5.353         -3.083          157.2          66.81          4.396          103.3          62.22
    0.9614              -18.18         -2.289          58.59          57.07         -5.154         -3.144          155.2          66.68           3.29          102.2          63.29
    0.9849              -18.12         -2.093          58.59           57.3         -4.904          -3.22          152.8          66.52          1.897          100.8          64.63
     1.008              -18.04         -1.844          58.59          57.58         -4.585         -3.318          149.7          66.33         0.1261          99.08          66.33
     1.032              -17.95         -1.526           58.6          57.94         -4.178         -3.442          145.7          66.07          -2.14          96.83          68.52
     1.055              -17.82         -1.116           58.6          58.41         -3.655         -3.602          140.5          65.74         -5.049          93.93          71.32
     1.079              -17.67        -0.5938          58.61           59.0         -2.987         -3.807          134.0          65.32         -8.765          90.24           74.9
     1.102              -17.47        0.06335          58.61          59.75         -2.147         -4.064          125.7           64.8         -13.44          85.59           79.4
     1.126              -17.23         0.8641          58.62          60.66         -1.123         -4.377          115.7          64.16         -19.13          79.93          84.88
     1.149              -16.95          1.792          58.63          61.72        0.06354          -4.74          104.0          63.41         -25.73          73.37          91.24
     1.172              -16.64          2.797          58.64          62.86          1.348         -5.133          91.38          62.61         -32.87          66.26          98.12
     1.196              -16.34          3.803          58.65          64.01          2.633         -5.526          78.76           61.8         -40.02          59.16          105.0
     1.219              -16.06          4.731          58.66          65.06           3.82         -5.888          67.11          61.06         -46.62          52.59          111.4
     1.243              -15.82          5.532          58.67          65.98          4.843         -6.201          57.05          60.42         -52.31          46.93          116.8
